<svg xmlns="http://www.w3.org/2000/svg" width="191.333" height="70" viewBox="0 0 191.333 70">
  <g id="Group_744" data-name="Group 744" transform="translate(0)">
    <g id="Group_714" data-name="Group 714" transform="translate(0 8.946)">
      <g id="Group_422" data-name="Group 422" transform="translate(0 52.109) rotate(-90)">
        <path id="Path_997" data-name="Path 997" d="M20.343,30.837c-5.609,0-11.22-.07-16.827.031-2.522.045-3.743-1-3.482-3.464C.915,19.11,1.881,10.826,2.79,2.536,2.966.93,4.169.8,5.333.692A169.445,169.445,0,0,1,35.8.68c1.4.125,2.413.558,2.595,2.269.839,7.905,1.766,15.8,2.681,23.7.382,3.287-1.095,4.359-4.3,4.243C31.306,30.695,25.822,30.838,20.343,30.837Z" transform="translate(5.507 11.381)" fill="#fff"/>
        <path id="Path_998" data-name="Path 998" d="M25.708,0c7.371.2,14.461.626,21.417,2.305,3.4.821,5.605,3.59,4.827,6.359C51,12.071,48.3,11.771,45.607,11.351a124.627,124.627,0,0,0-39.238.035C3.667,11.823.975,12,.142,8.524-.564,5.583,1.424,3.15,4.751,2.3,11.719.529,18.832.261,25.708,0Z" fill="#fff"/>
        <path id="Path_999" data-name="Path 999" d="M6.384,19.854c.127,1.48.262,3.123-1.634,3.426-1.916.306-2.278-1.241-2.47-2.754C1.557,14.851.809,9.18.093,3.5-.092,2.041-.186.365,1.669.045,3.682-.3,3.807,1.413,4.007,2.859Q5.186,11.357,6.384,19.854Z" transform="translate(45.626 13.867)" fill="#fff"/>
        <path id="Path_1000" data-name="Path 1000" d="M.081,19.578C.891,13.8,1.7,8.136,2.47,2.466,2.643,1.2,3.057-.061,4.439,0c1.553.071,2.122,1.376,1.942,2.84Q5.237,12.136,4.015,21.418c-.177,1.354-.993,2.232-2.4,1.9C-.589,22.793.114,20.96.081,19.578Z" transform="translate(0.072 14.276)" fill="#fff"/>
      </g>
    </g>
    <g id="Group_715" data-name="Group 715" transform="translate(149.052 8.945)">
      <g id="Group_421" data-name="Group 421" transform="translate(42.281 0) rotate(90)">
        <path id="Path_997-2" data-name="Path 997" d="M20.343,30.837c-5.609,0-11.22-.07-16.827.031-2.522.045-3.743-1-3.482-3.464C.915,19.11,1.881,10.826,2.79,2.536,2.966.93,4.169.8,5.333.692A169.445,169.445,0,0,1,35.8.68c1.4.125,2.413.558,2.595,2.269.839,7.905,1.766,15.8,2.681,23.7.382,3.287-1.095,4.359-4.3,4.243C31.306,30.695,25.822,30.838,20.343,30.837Z" transform="translate(5.507 11.381)" fill="#fff"/>
        <path id="Path_998-2" data-name="Path 998" d="M25.708,0c7.371.2,14.461.626,21.417,2.305,3.4.821,5.605,3.59,4.827,6.359C51,12.071,48.3,11.771,45.607,11.351a124.627,124.627,0,0,0-39.238.035C3.667,11.823.975,12,.142,8.524-.564,5.583,1.424,3.15,4.751,2.3,11.719.529,18.832.261,25.708,0Z" transform="translate(0 0)" fill="#fff"/>
        <path id="Path_999-2" data-name="Path 999" d="M6.384,19.854c.127,1.48.262,3.123-1.634,3.426-1.916.306-2.278-1.241-2.47-2.754C1.557,14.851.809,9.18.093,3.5-.092,2.041-.186.365,1.669.045,3.682-.3,3.807,1.413,4.007,2.859Q5.186,11.357,6.384,19.854Z" transform="translate(45.626 13.867)" fill="#fff"/>
        <path id="Path_1000-2" data-name="Path 1000" d="M.081,19.578C.891,13.8,1.7,8.136,2.47,2.466,2.643,1.2,3.057-.061,4.439,0c1.553.071,2.122,1.376,1.942,2.84Q5.237,12.136,4.015,21.418c-.177,1.354-.993,2.232-2.4,1.9C-.589,22.793.114,20.96.081,19.578Z" transform="translate(0.072 14.276)" fill="#fff"/>
      </g>
    </g>
    <rect id="Rectangle_222" data-name="Rectangle 222" width="71.944" height="70" rx="12" transform="translate(59.694)" fill="#fff"/>
  </g>
</svg>
