<svg xmlns="http://www.w3.org/2000/svg" xmlns:xlink="http://www.w3.org/1999/xlink" width="190" height="140" viewBox="0 0 190 140">
  <defs>
    <linearGradient id="linear-gradient" x1="0.5" x2="0.5" y2="1" gradientUnits="objectBoundingBox">
      <stop offset="0" stop-color="#c8c8f3"/>
      <stop offset="1" stop-color="#f9f9ff"/>
    </linearGradient>
  </defs>
  <g id="Group_743" data-name="Group 743" transform="translate(-1770.139 -1533)">
    <g id="Group_425" data-name="Group 425" transform="translate(1770.139 1669.199) rotate(-90)">
      <path id="Path_997" data-name="Path 997" d="M21.586,32.721c-5.952,0-11.905-.074-17.855.033C1.055,32.8-.241,31.7.037,29.078.971,20.278,2,11.488,2.96,2.69,3.147.986,4.424.848,5.659.734A179.8,179.8,0,0,1,37.99.722c1.489.132,2.561.592,2.753,2.408.891,8.388,1.874,16.767,2.845,25.147.4,3.488-1.162,4.625-4.564,4.5C33.218,32.57,27.4,32.722,21.586,32.721Z" transform="translate(5.843 12.076)" fill="url(#linear-gradient)"/>
      <path id="Path_998" data-name="Path 998" d="M27.279,0C35.1.215,42.623.665,50,2.446c3.609.872,5.948,3.809,5.122,6.748-1.016,3.614-3.871,3.3-6.733,2.851a132.242,132.242,0,0,0-41.635.037c-2.867.463-5.723.648-6.607-3.038-.749-3.12,1.361-5.7,4.891-6.6C12.435.561,19.982.277,27.279,0Z" transform="translate(0)" fill="url(#linear-gradient)"/>
      <path id="Path_999" data-name="Path 999" d="M6.774,21.067c.135,1.57.278,3.313-1.734,3.635-2.033.324-2.417-1.316-2.621-2.922C1.652,15.758.858,9.741.1,3.719-.1,2.166-.2.387,1.771.048,3.907-.32,4.039,1.5,4.252,3.034Q5.5,12.051,6.774,21.067Z" transform="translate(48.413 14.714)" fill="url(#linear-gradient)"/>
      <path id="Path_1000" data-name="Path 1000" d="M.086,20.774c.86-6.129,1.72-12.141,2.536-18.158C2.8,1.272,3.244-.065,4.71,0c1.648.075,2.251,1.46,2.061,3.013Q5.557,12.877,4.26,22.727c-.188,1.436-1.054,2.369-2.543,2.015C-.625,24.185.121,22.24.086,20.774Z" transform="translate(0.076 15.149)" fill="url(#linear-gradient)"/>
    </g>
    <g id="Group_423" data-name="Group 423" transform="translate(1960.139 1613.907) rotate(90)">
      <path id="Path_997-2" data-name="Path 997" d="M21.586,32.721c-5.952,0-11.905-.074-17.855.033C1.055,32.8-.241,31.7.037,29.078.971,20.278,2,11.488,2.96,2.69,3.147.986,4.424.848,5.659.734A179.8,179.8,0,0,1,37.99.722c1.489.132,2.561.592,2.753,2.408.891,8.388,1.874,16.767,2.845,25.147.4,3.488-1.162,4.625-4.564,4.5C33.218,32.57,27.4,32.722,21.586,32.721Z" transform="translate(5.843 12.076)" fill="url(#linear-gradient)"/>
      <path id="Path_998-2" data-name="Path 998" d="M27.279,0C35.1.215,42.623.665,50,2.446c3.609.872,5.948,3.809,5.122,6.748-1.016,3.614-3.871,3.3-6.733,2.851a132.242,132.242,0,0,0-41.635.037c-2.867.463-5.723.648-6.607-3.038-.749-3.12,1.361-5.7,4.891-6.6C12.435.561,19.982.277,27.279,0Z" transform="translate(0)" fill="url(#linear-gradient)"/>
      <path id="Path_999-2" data-name="Path 999" d="M6.774,21.067c.135,1.57.278,3.313-1.734,3.635-2.033.324-2.417-1.316-2.621-2.922C1.652,15.758.858,9.741.1,3.719-.1,2.166-.2.387,1.771.048,3.907-.32,4.039,1.5,4.252,3.034Q5.5,12.051,6.774,21.067Z" transform="translate(48.413 14.714)" fill="url(#linear-gradient)"/>
      <path id="Path_1000-2" data-name="Path 1000" d="M.086,20.774c.86-6.129,1.72-12.141,2.536-18.158C2.8,1.272,3.244-.065,4.71,0c1.648.075,2.251,1.46,2.061,3.013Q5.557,12.877,4.26,22.727c-.188,1.436-1.054,2.369-2.543,2.015C-.625,24.185.121,22.24.086,20.774Z" transform="translate(0.076 15.149)" fill="url(#linear-gradient)"/>
    </g>
    <g id="Group_694" data-name="Group 694" transform="translate(1770.139 1533)">
      <g id="Group_426" data-name="Group 426" transform="translate(0 65.281) rotate(-90)">
        <path id="Path_997-3" data-name="Path 997" d="M21.586,32.721c-5.952,0-11.905-.074-17.855.033C1.055,32.8-.241,31.7.037,29.078.971,20.278,2,11.488,2.96,2.69,3.147.986,4.424.848,5.659.734A179.8,179.8,0,0,1,37.99.722c1.489.132,2.561.592,2.753,2.408.891,8.388,1.874,16.767,2.845,25.147.4,3.488-1.162,4.625-4.564,4.5C33.218,32.57,27.4,32.722,21.586,32.721Z" transform="translate(5.843 12.076)" fill="url(#linear-gradient)"/>
        <path id="Path_998-3" data-name="Path 998" d="M27.279,0C35.1.215,42.623.665,50,2.446c3.609.872,5.948,3.809,5.122,6.748-1.016,3.614-3.871,3.3-6.733,2.851a132.242,132.242,0,0,0-41.635.037c-2.867.463-5.723.648-6.607-3.038-.749-3.12,1.361-5.7,4.891-6.6C12.435.561,19.982.277,27.279,0Z" transform="translate(0)" fill="url(#linear-gradient)"/>
        <path id="Path_999-3" data-name="Path 999" d="M6.774,21.067c.135,1.57.278,3.313-1.734,3.635-2.033.324-2.417-1.316-2.621-2.922C1.652,15.758.858,9.741.1,3.719-.1,2.166-.2.387,1.771.048,3.907-.32,4.039,1.5,4.252,3.034Q5.5,12.051,6.774,21.067Z" transform="translate(48.413 14.714)" fill="url(#linear-gradient)"/>
        <path id="Path_1000-3" data-name="Path 1000" d="M.086,20.774c.86-6.129,1.72-12.141,2.536-18.158C2.8,1.272,3.244-.065,4.71,0c1.648.075,2.251,1.46,2.061,3.013Q5.557,12.877,4.26,22.727c-.188,1.436-1.054,2.369-2.543,2.015C-.625,24.185.121,22.24.086,20.774Z" transform="translate(0.076 15.149)" fill="url(#linear-gradient)"/>
      </g>
      <g id="Group_424" data-name="Group 424" transform="translate(190 5.862) rotate(90)">
        <path id="Path_997-4" data-name="Path 997" d="M21.586,32.721c-5.952,0-11.905-.074-17.855.033C1.055,32.8-.241,31.7.037,29.078.971,20.278,2,11.488,2.96,2.69,3.147.986,4.424.848,5.659.734A179.8,179.8,0,0,1,37.99.722c1.489.132,2.561.592,2.753,2.408.891,8.388,1.874,16.767,2.845,25.147.4,3.488-1.162,4.625-4.564,4.5C33.218,32.57,27.4,32.722,21.586,32.721Z" transform="translate(5.843 12.076)" fill="url(#linear-gradient)"/>
        <path id="Path_998-4" data-name="Path 998" d="M27.279,0C35.1.215,42.623.665,50,2.446c3.609.872,5.948,3.809,5.122,6.748-1.016,3.614-3.871,3.3-6.733,2.851a132.242,132.242,0,0,0-41.635.037c-2.867.463-5.723.648-6.607-3.038-.749-3.12,1.361-5.7,4.891-6.6C12.435.561,19.982.277,27.279,0Z" transform="translate(0)" fill="url(#linear-gradient)"/>
        <path id="Path_999-4" data-name="Path 999" d="M6.774,21.067c.135,1.57.278,3.313-1.734,3.635-2.033.324-2.417-1.316-2.621-2.922C1.652,15.758.858,9.741.1,3.719-.1,2.166-.2.387,1.771.048,3.907-.32,4.039,1.5,4.252,3.034Q5.5,12.051,6.774,21.067Z" transform="translate(48.413 14.714)" fill="url(#linear-gradient)"/>
        <path id="Path_1000-4" data-name="Path 1000" d="M.086,20.774c.86-6.129,1.72-12.141,2.536-18.158C2.8,1.272,3.244-.065,4.71,0c1.648.075,2.251,1.46,2.061,3.013Q5.557,12.877,4.26,22.727c-.188,1.436-1.054,2.369-2.543,2.015C-.625,24.185.121,22.24.086,20.774Z" transform="translate(0.076 15.149)" fill="url(#linear-gradient)"/>
      </g>
      <rect id="Rectangle_223" data-name="Rectangle 223" width="76.34" height="140" rx="12" transform="translate(57.135)" fill="url(#linear-gradient)"/>
    </g>
  </g>
</svg>
