<svg xmlns="http://www.w3.org/2000/svg" width="280.485" height="279.596" viewBox="0 0 280.485 279.596">
  <g id="Group_746" data-name="Group 746" transform="translate(-1763.695 -1821.78)">
    <g id="Group_448" data-name="Group 448" transform="matrix(0.966, 0.259, -0.259, 0.966, 1907.028, 1821.78)">
      <path id="Path_997" data-name="Path 997" d="M21.814,33.067c-6.015,0-12.031-.075-18.043.034-2.7.049-4.014-1.067-3.733-3.715.944-8.894,1.98-17.776,2.954-26.667C3.181,1,4.471.857,5.719.742A181.7,181.7,0,0,1,38.391.73c1.505.134,2.588.6,2.783,2.433.9,8.477,1.894,16.944,2.875,25.413.409,3.525-1.174,4.674-4.612,4.55C33.569,32.915,27.689,33.068,21.814,33.067Z" transform="translate(5.905 12.204)" fill="#fff"/>
      <path id="Path_998" data-name="Path 998" d="M27.567,0c7.9.217,15.506.672,22.966,2.472,3.647.881,6.011,3.849,5.176,6.819-1.026,3.653-3.912,3.332-6.8,2.881A133.639,133.639,0,0,0,6.83,12.21c-2.9.468-5.784.655-6.677-3.07C-.6,5.986,1.527,3.378,5.095,2.469,12.566.567,20.194.28,27.567,0Z" transform="translate(0 0)" fill="#fff"/>
      <path id="Path_999" data-name="Path 999" d="M6.846,21.289c.136,1.587.281,3.348-1.752,3.674-2.054.328-2.442-1.33-2.649-2.953C1.669,15.925.868,9.844.1,3.758-.1,2.188-.2.392,1.79.049,3.949-.324,4.082,1.515,4.3,3.066Q5.561,12.178,6.846,21.289Z" transform="translate(48.925 14.869)" fill="#fff"/>
      <path id="Path_1000" data-name="Path 1000" d="M.087,20.994C.955,14.8,1.824,8.725,2.649,2.644,2.834,1.286,3.278-.066,4.76,0,6.426.078,7.035,1.477,6.843,3.048Q5.616,13.013,4.305,22.967C4.115,24.418,3.24,25.36,1.736,25-.631,24.441.122,22.475.087,20.994Z" transform="translate(0.077 15.309)" fill="#fff"/>
    </g>
    <g id="Group_447" data-name="Group 447" transform="translate(1763.695 1986.264) rotate(-90)">
      <path id="Path_997-2" data-name="Path 997" d="M21.814,33.067c-6.015,0-12.031-.075-18.043.034-2.7.049-4.014-1.067-3.733-3.715.944-8.894,1.98-17.776,2.954-26.667C3.181,1,4.471.857,5.719.742A181.7,181.7,0,0,1,38.391.73c1.505.134,2.588.6,2.783,2.433.9,8.477,1.894,16.944,2.875,25.413.409,3.525-1.174,4.674-4.612,4.55C33.569,32.915,27.689,33.068,21.814,33.067Z" transform="translate(5.905 12.204)" fill="#fff"/>
      <path id="Path_998-2" data-name="Path 998" d="M27.567,0c7.9.217,15.506.672,22.966,2.472,3.647.881,6.011,3.849,5.176,6.819-1.026,3.653-3.912,3.332-6.8,2.881A133.639,133.639,0,0,0,6.83,12.21c-2.9.468-5.784.655-6.677-3.07C-.6,5.986,1.527,3.378,5.095,2.469,12.566.567,20.194.28,27.567,0Z" transform="translate(0)" fill="#fff"/>
      <path id="Path_999-2" data-name="Path 999" d="M6.846,21.289c.136,1.587.281,3.348-1.752,3.674-2.054.328-2.442-1.33-2.649-2.953C1.669,15.925.868,9.844.1,3.758-.1,2.188-.2.392,1.79.049,3.949-.324,4.082,1.515,4.3,3.066Q5.561,12.178,6.846,21.289Z" transform="translate(48.925 14.869)" fill="#fff"/>
      <path id="Path_1000-2" data-name="Path 1000" d="M.087,20.994C.955,14.8,1.824,8.725,2.649,2.644,2.834,1.286,3.278-.066,4.76,0,6.426.078,7.035,1.477,6.843,3.048Q5.616,13.013,4.305,22.967C4.115,24.418,3.24,25.36,1.736,25-.631,24.441.122,22.475.087,20.994Z" transform="translate(0.077 15.309)" fill="#fff"/>
    </g>
    <g id="Group_450" data-name="Group 450" transform="matrix(0.695, -0.719, 0.719, 0.695, 1792.351, 1877.188)">
      <path id="Path_997-3" data-name="Path 997" d="M21.814,33.067c-6.015,0-12.031-.075-18.043.034-2.7.049-4.014-1.067-3.733-3.715.944-8.894,1.98-17.776,2.954-26.667C3.181,1,4.471.857,5.719.742A181.7,181.7,0,0,1,38.391.73c1.505.134,2.588.6,2.783,2.433.9,8.477,1.894,16.944,2.875,25.413.409,3.525-1.174,4.674-4.612,4.55C33.569,32.915,27.689,33.068,21.814,33.067Z" transform="translate(5.905 12.204)" fill="#fff"/>
      <path id="Path_998-3" data-name="Path 998" d="M27.567,0c7.9.217,15.506.672,22.966,2.472,3.647.881,6.011,3.849,5.176,6.819-1.026,3.653-3.912,3.332-6.8,2.881A133.639,133.639,0,0,0,6.83,12.21c-2.9.468-5.784.655-6.677-3.07C-.6,5.986,1.527,3.378,5.095,2.469,12.566.567,20.194.28,27.567,0Z" transform="translate(0 0)" fill="#fff"/>
      <path id="Path_999-3" data-name="Path 999" d="M6.846,21.289c.136,1.587.281,3.348-1.752,3.674-2.054.328-2.442-1.33-2.649-2.953C1.669,15.925.868,9.844.1,3.758-.1,2.188-.2.392,1.79.049,3.949-.324,4.082,1.515,4.3,3.066Q5.561,12.178,6.846,21.289Z" transform="translate(48.925 14.869)" fill="#fff"/>
      <path id="Path_1000-3" data-name="Path 1000" d="M.087,20.994C.955,14.8,1.824,8.725,2.649,2.644,2.834,1.286,3.278-.066,4.76,0,6.426.078,7.035,1.477,6.843,3.048Q5.616,13.013,4.305,22.967C4.115,24.418,3.24,25.36,1.736,25-.631,24.441.122,22.475.087,20.994Z" transform="translate(0.077 15.309)" fill="#fff"/>
    </g>
    <g id="Group_445" data-name="Group 445" transform="matrix(0.407, 0.914, -0.914, 0.407, 2016.057, 1866.206)">
      <path id="Path_997-4" data-name="Path 997" d="M21.814,33.067c-6.015,0-12.031-.075-18.043.034-2.7.049-4.014-1.067-3.733-3.715.944-8.894,1.98-17.776,2.954-26.667C3.181,1,4.471.857,5.719.742A181.7,181.7,0,0,1,38.391.73c1.505.134,2.588.6,2.783,2.433.9,8.477,1.894,16.944,2.875,25.413.409,3.525-1.174,4.674-4.612,4.55C33.569,32.915,27.689,33.068,21.814,33.067Z" transform="translate(5.905 12.204)" fill="#fff"/>
      <path id="Path_998-4" data-name="Path 998" d="M27.567,0c7.9.217,15.506.672,22.966,2.472,3.647.881,6.011,3.849,5.176,6.819-1.026,3.653-3.912,3.332-6.8,2.881A133.639,133.639,0,0,0,6.83,12.21c-2.9.468-5.784.655-6.677-3.07C-.6,5.986,1.527,3.378,5.095,2.469,12.566.567,20.194.28,27.567,0Z" transform="translate(0 0)" fill="#fff"/>
      <path id="Path_999-4" data-name="Path 999" d="M6.846,21.289c.136,1.587.281,3.348-1.752,3.674-2.054.328-2.442-1.33-2.649-2.953C1.669,15.925.868,9.844.1,3.758-.1,2.188-.2.392,1.79.049,3.949-.324,4.082,1.515,4.3,3.066Q5.561,12.178,6.846,21.289Z" transform="translate(48.925 14.869)" fill="#fff"/>
      <path id="Path_1000-4" data-name="Path 1000" d="M.087,20.994C.955,14.8,1.824,8.725,2.649,2.644,2.834,1.286,3.278-.066,4.76,0,6.426.078,7.035,1.477,6.843,3.048Q5.616,13.013,4.305,22.967C4.115,24.418,3.24,25.36,1.736,25-.631,24.441.122,22.475.087,20.994Z" transform="translate(0.077 15.309)" fill="#fff"/>
    </g>
    <g id="Group_446" data-name="Group 446" transform="matrix(-0.259, 0.966, -0.966, -0.259, 2044.18, 1970.567)">
      <path id="Path_997-5" data-name="Path 997" d="M21.814,33.067c-6.015,0-12.031-.075-18.043.034-2.7.049-4.014-1.067-3.733-3.715.944-8.894,1.98-17.776,2.954-26.667C3.181,1,4.471.857,5.719.742A181.7,181.7,0,0,1,38.391.73c1.505.134,2.588.6,2.783,2.433.9,8.477,1.894,16.944,2.875,25.413.409,3.525-1.174,4.674-4.612,4.55C33.569,32.915,27.689,33.068,21.814,33.067Z" transform="translate(5.905 12.204)" fill="#fff"/>
      <path id="Path_998-5" data-name="Path 998" d="M27.567,0c7.9.217,15.506.672,22.966,2.472,3.647.881,6.011,3.849,5.176,6.819-1.026,3.653-3.912,3.332-6.8,2.881A133.639,133.639,0,0,0,6.83,12.21c-2.9.468-5.784.655-6.677-3.07C-.6,5.986,1.527,3.378,5.095,2.469,12.566.567,20.194.28,27.567,0Z" transform="translate(0 0)" fill="#fff"/>
      <path id="Path_999-5" data-name="Path 999" d="M6.846,21.289c.136,1.587.281,3.348-1.752,3.674-2.054.328-2.442-1.33-2.649-2.953C1.669,15.925.868,9.844.1,3.758-.1,2.188-.2.392,1.79.049,3.949-.324,4.082,1.515,4.3,3.066Q5.561,12.178,6.846,21.289Z" transform="translate(48.925 14.869)" fill="#fff"/>
      <path id="Path_1000-5" data-name="Path 1000" d="M.087,20.994C.955,14.8,1.824,8.725,2.649,2.644,2.834,1.286,3.278-.066,4.76,0,6.426.078,7.035,1.477,6.843,3.048Q5.616,13.013,4.305,22.967C4.115,24.418,3.24,25.36,1.736,25-.631,24.441.122,22.475.087,20.994Z" transform="translate(0.077 15.309)" fill="#fff"/>
    </g>
    <g id="Group_449" data-name="Group 449" transform="matrix(-0.974, 0.225, -0.225, -0.974, 1968.142, 2088.806)">
      <path id="Path_997-6" data-name="Path 997" d="M21.814,33.067c-6.015,0-12.031-.075-18.043.034-2.7.049-4.014-1.067-3.733-3.715.944-8.894,1.98-17.776,2.954-26.667C3.181,1,4.471.857,5.719.742A181.7,181.7,0,0,1,38.391.73c1.505.134,2.588.6,2.783,2.433.9,8.477,1.894,16.944,2.875,25.413.409,3.525-1.174,4.674-4.612,4.55C33.569,32.915,27.689,33.068,21.814,33.067Z" transform="translate(5.905 12.204)" fill="#fff"/>
      <path id="Path_998-6" data-name="Path 998" d="M27.567,0c7.9.217,15.506.672,22.966,2.472,3.647.881,6.011,3.849,5.176,6.819-1.026,3.653-3.912,3.332-6.8,2.881A133.639,133.639,0,0,0,6.83,12.21c-2.9.468-5.784.655-6.677-3.07C-.6,5.986,1.527,3.378,5.095,2.469,12.566.567,20.194.28,27.567,0Z" transform="translate(0 0)" fill="#fff"/>
      <path id="Path_999-6" data-name="Path 999" d="M6.846,21.289c.136,1.587.281,3.348-1.752,3.674-2.054.328-2.442-1.33-2.649-2.953C1.669,15.925.868,9.844.1,3.758-.1,2.188-.2.392,1.79.049,3.949-.324,4.082,1.515,4.3,3.066Q5.561,12.178,6.846,21.289Z" transform="translate(48.925 14.869)" fill="#fff"/>
      <path id="Path_1000-6" data-name="Path 1000" d="M.087,20.994C.955,14.8,1.824,8.725,2.649,2.644,2.834,1.286,3.278-.066,4.76,0,6.426.078,7.035,1.477,6.843,3.048Q5.616,13.013,4.305,22.967C4.115,24.418,3.24,25.36,1.736,25-.631,24.441.122,22.475.087,20.994Z" transform="translate(0.077 15.309)" fill="#fff"/>
    </g>
    <g id="Group_451" data-name="Group 451" transform="translate(1839.67 2088.058) rotate(-149)">
      <path id="Path_997-7" data-name="Path 997" d="M21.814,33.067c-6.015,0-12.031-.075-18.043.034-2.7.049-4.014-1.067-3.733-3.715.944-8.894,1.98-17.776,2.954-26.667C3.181,1,4.471.857,5.719.742A181.7,181.7,0,0,1,38.391.73c1.505.134,2.588.6,2.783,2.433.9,8.477,1.894,16.944,2.875,25.413.409,3.525-1.174,4.674-4.612,4.55C33.569,32.915,27.689,33.068,21.814,33.067Z" transform="translate(5.905 12.204)" fill="#fff"/>
      <path id="Path_998-7" data-name="Path 998" d="M27.567,0c7.9.217,15.506.672,22.966,2.472,3.647.881,6.011,3.849,5.176,6.819-1.026,3.653-3.912,3.332-6.8,2.881A133.639,133.639,0,0,0,6.83,12.21c-2.9.468-5.784.655-6.677-3.07C-.6,5.986,1.527,3.378,5.095,2.469,12.566.567,20.194.28,27.567,0Z" transform="translate(0 0)" fill="#fff"/>
      <path id="Path_999-7" data-name="Path 999" d="M6.846,21.289c.136,1.587.281,3.348-1.752,3.674-2.054.328-2.442-1.33-2.649-2.953C1.669,15.925.868,9.844.1,3.758-.1,2.188-.2.392,1.79.049,3.949-.324,4.082,1.515,4.3,3.066Q5.561,12.178,6.846,21.289Z" transform="translate(48.925 14.869)" fill="#fff"/>
      <path id="Path_1000-7" data-name="Path 1000" d="M.087,20.994C.955,14.8,1.824,8.725,2.649,2.644,2.834,1.286,3.278-.066,4.76,0,6.426.078,7.035,1.477,6.843,3.048Q5.616,13.013,4.305,22.967C4.115,24.418,3.24,25.36,1.736,25-.631,24.441.122,22.475.087,20.994Z" transform="translate(0.077 15.309)" fill="#fff"/>
    </g>
    <circle id="Ellipse_32" data-name="Ellipse 32" cx="82.487" cy="82.487" r="82.487" transform="translate(1820.385 1880.904)" fill="#fff"/>
  </g>
</svg>
