<svg id="Group_747" data-name="Group 747" xmlns="http://www.w3.org/2000/svg" width="315.644" height="187.288" viewBox="0 0 315.644 187.288">
  <g id="Group_417" data-name="Group 417" transform="translate(255.207 0)">
    <path id="Path_997" data-name="Path 997" d="M20.262,33.088c-5.837,0-10.352-.105-16.187,0C1.451,33.135-.244,31.61.029,29.041c.916-8.63,1.078-17.676,2.023-26.3C2.235,1.066,4.888.825,6.1.714a161.6,161.6,0,0,1,30.35,0c1.461.13,3.858.243,4.047,2.023.873,8.226,1.071,16.063,2.023,24.28.4,3.421-.71,6.19-4.047,6.07C32.779,32.883,25.963,33.089,20.262,33.088Z" transform="translate(6.144 11.426)" fill="#fff"/>
    <path id="Path_998" data-name="Path 998" d="M26.406,0c7.67.21,15.018.276,22.257,2.023,3.54.855,6.88,3.188,6.07,6.07-1,3.545-3.263,4.484-6.07,4.047a140.377,140.377,0,0,0-42.491,0C3.36,12.594.969,11.708.1,8.093-.632,5.033,2.71,2.9,6.172,2.023,13.423.178,19.251.272,26.406,0Z" transform="translate(0 0)" fill="#fff"/>
    <path id="Path_999" data-name="Path 999" d="M6.121,20.314c.132,1.54-.051,3.731-2.023,4.047-1.993.318-1.823-.448-2.023-2.023C1.322,16.433.8,10.033.051,4.128-.141,2.6.144.414,2.074.081,4.169-.28,3.89.6,4.1,2.1,4.916,8,5.3,14.419,6.121,20.314Z" transform="translate(48.612 14.083)" fill="#fff"/>
    <path id="Path_1000" data-name="Path 1000" d="M0,20.238c.843-6.011,1.223-12.31,2.023-18.21C2.2.709,2.609-.062,4.047,0,5.663.077,6.257,2.527,6.07,4.051,5.277,10.5,4.891,15.82,4.047,22.261c-.185,1.409-.564,2.37-2.023,2.023C-.274,23.739.035,21.675,0,20.238Z" transform="translate(0.102 14.16)" fill="#fff"/>
  </g>
  <g id="Group_418" data-name="Group 418" transform="translate(95.362 0)">
    <path id="Path_997-2" data-name="Path 997" d="M20.262,33.088c-5.837,0-10.352-.105-16.187,0C1.451,33.135-.244,31.61.029,29.041c.916-8.63,1.078-17.676,2.023-26.3C2.235,1.066,4.888.825,6.1.714a161.6,161.6,0,0,1,30.35,0c1.461.13,3.858.243,4.047,2.023.873,8.226,1.071,16.063,2.023,24.28.4,3.421-.71,6.19-4.047,6.07C32.779,32.883,25.963,33.089,20.262,33.088Z" transform="translate(6.144 11.426)" fill="#fff"/>
    <path id="Path_998-2" data-name="Path 998" d="M26.406,0c7.67.21,15.018.276,22.257,2.023,3.54.855,6.88,3.188,6.07,6.07-1,3.545-3.263,4.484-6.07,4.047a140.377,140.377,0,0,0-42.491,0C3.36,12.594.969,11.708.1,8.093-.632,5.033,2.71,2.9,6.172,2.023,13.423.178,19.251.272,26.406,0Z" transform="translate(0 0)" fill="#fff"/>
    <path id="Path_999-2" data-name="Path 999" d="M6.972,20.314c.132,1.54-.051,3.731-2.023,4.047-1.993.318-1.823-.448-2.023-2.023-.752-5.9-1.279-12.3-2.023-18.21C.71,2.6-1.028.414.9.081,3-.28,4.741.6,4.949,2.1,5.767,8,6.147,14.419,6.972,20.314Z" transform="translate(47.761 14.083)" fill="#fff"/>
    <path id="Path_1000-2" data-name="Path 1000" d="M0,20.238c.843-6.011,1.223-12.31,2.023-18.21C2.2.709,2.609-.062,4.047,0,5.663.077,6.257,2.527,6.07,4.051,5.277,10.5,4.891,15.82,4.047,22.261c-.185,1.409-.564,2.37-2.023,2.023C-.274,23.739.035,21.675,0,20.238Z" transform="translate(0.102 14.16)" fill="#fff"/>
  </g>
  <g id="Group_420" data-name="Group 420" transform="translate(176.202 0)">
    <path id="Path_997-3" data-name="Path 997" d="M20.414,33.088c-5.837,0-12.376-.105-18.21,0-2.625.047-2.3-1.478-2.023-4.047C1.1,20.411,1.258,11.365,2.2,2.737,2.387,1.066,3.016.825,4.227.714A183.814,183.814,0,0,1,36.6.714c1.461.13,1.834.243,2.023,2.023.873,8.226,3.094,16.063,4.047,24.28.4,3.421-2.734,6.19-6.07,6.07C30.907,32.883,26.115,33.089,20.414,33.088Z" transform="translate(6.087 11.426)" fill="#fff"/>
    <path id="Path_998-3" data-name="Path 998" d="M26.5,0c7.67.21,15.018.276,22.257,2.023,3.54.855,4.856,3.188,4.047,6.07-1,3.545-3.263,4.484-6.07,4.047a127.4,127.4,0,0,0-40.467,0c-2.812.454-5.2-.432-6.07-4.047C-.538,5.033.781,2.9,4.243,2.023,11.494.178,19.345.272,26.5,0Z" transform="translate(0 0)" fill="#fff"/>
    <path id="Path_999-3" data-name="Path 999" d="M6.121,20.314c.132,1.54,1.973,3.731,0,4.047-1.993.318-3.846-.448-4.047-2.023C1.322,16.433.8,10.033.051,4.128-.141,2.6.144.414,2.074.081,4.169-.28,3.89.6,4.1,2.1,4.916,8,5.3,14.419,6.121,20.314Z" transform="translate(46.683 14.083)" fill="#fff"/>
    <path id="Path_1000-3" data-name="Path 1000" d="M0,20.238c.843-6.011,1.223-12.31,2.023-18.21C2.2.709,2.609-.062,4.047,0,5.663.077,6.257,2.527,6.07,4.051,5.277,10.5,4.891,15.82,4.047,22.261c-.185,1.409-.564,2.37-2.023,2.023C-.274,23.739.035,21.675,0,20.238Z" transform="translate(0.197 14.16)" fill="#fff"/>
  </g>
  <g id="Group_416" data-name="Group 416" transform="translate(309.896 186.686) rotate(180)">
    <path id="Path_997-4" data-name="Path 997" d="M21.169,32.088c-5.837,0-11.675-.073-17.51.033-2.625.047-3.9-1.036-3.623-3.6C.952,19.886,1.958,11.266,2.9,2.638,3.086.967,4.338.831,5.55.72A176.321,176.321,0,0,1,37.255.708c1.461.13,2.511.581,2.7,2.361.873,8.226,1.838,16.443,2.79,24.661.4,3.421-1.139,4.535-4.476,4.416C32.576,31.941,26.87,32.089,21.169,32.088Z" transform="translate(5.73 11.843)" fill="#fff"/>
    <path id="Path_998-4" data-name="Path 998" d="M26.751,0C34.421.21,41.8.652,49.038,2.4c3.54.855,5.833,3.735,5.023,6.618-1,3.545-3.8,3.233-6.6,2.8a129.685,129.685,0,0,0-40.831.037c-2.812.454-5.613.635-6.48-2.979-.735-3.06,1.334-5.592,4.8-6.473C12.195.551,19.6.272,26.751,0Z" transform="translate(0 0)" fill="#fff"/>
    <path id="Path_999-4" data-name="Path 999" d="M6.643,20.659c.132,1.54.272,3.249-1.7,3.565-1.993.318-2.37-1.291-2.571-2.866C1.62,15.454.842,9.553.1,3.647-.1,2.124-.193.38,1.737.047,3.832-.314,3.961,1.47,4.169,2.975Q5.4,11.818,6.643,20.659Z" transform="translate(47.477 14.429)" fill="#fff"/>
    <path id="Path_1000-4" data-name="Path 1000" d="M.084,20.372C.927,14.362,1.77,8.467,2.571,2.566,2.75,1.248,3.181-.064,4.619,0,6.236.076,6.827,1.434,6.64,2.957q-1.19,9.671-2.462,19.33C3.994,23.7,3.145,24.61,1.685,24.264-.612,23.718.119,21.81.084,20.372Z" transform="translate(0.074 14.856)" fill="#fff"/>
  </g>
  <g id="Group_415" data-name="Group 415" transform="translate(149.978 187.288) rotate(180)">
    <path id="Path_997-5" data-name="Path 997" d="M21.169,32.088c-5.837,0-11.675-.073-17.51.033-2.625.047-3.9-1.036-3.623-3.6C.952,19.886,1.958,11.266,2.9,2.638,3.086.967,4.338.831,5.55.72A176.321,176.321,0,0,1,37.255.708c1.461.13,2.511.581,2.7,2.361.873,8.226,1.838,16.443,2.79,24.661.4,3.421-1.139,4.535-4.476,4.416C32.576,31.941,26.87,32.089,21.169,32.088Z" transform="translate(5.73 11.843)" fill="#fff"/>
    <path id="Path_998-5" data-name="Path 998" d="M26.751,0C34.421.21,41.8.652,49.038,2.4c3.54.855,5.833,3.735,5.023,6.618-1,3.545-3.8,3.233-6.6,2.8a129.685,129.685,0,0,0-40.831.037c-2.812.454-5.613.635-6.48-2.979-.735-3.06,1.334-5.592,4.8-6.473C12.195.551,19.6.272,26.751,0Z" transform="translate(0 0)" fill="#fff"/>
    <path id="Path_999-5" data-name="Path 999" d="M6.643,20.659c.132,1.54.272,3.249-1.7,3.565-1.993.318-2.37-1.291-2.571-2.866C1.62,15.454.842,9.553.1,3.647-.1,2.124-.193.38,1.737.047,3.832-.314,3.961,1.47,4.169,2.975Q5.4,11.818,6.643,20.659Z" transform="translate(47.477 14.429)" fill="#fff"/>
    <path id="Path_1000-5" data-name="Path 1000" d="M.084,20.372C.927,14.362,1.77,8.467,2.571,2.566,2.75,1.248,3.181-.064,4.619,0,6.236.076,6.827,1.434,6.64,2.957q-1.19,9.671-2.462,19.33C3.994,23.7,3.145,24.61,1.685,24.264-.612,23.718.119,21.81.084,20.372Z" transform="translate(0.074 14.856)" fill="#fff"/>
  </g>
  <g id="Group_419" data-name="Group 419" transform="translate(229.937 187.288) rotate(180)">
    <path id="Path_997-6" data-name="Path 997" d="M21.169,32.088c-5.837,0-11.675-.073-17.51.033-2.625.047-3.9-1.036-3.623-3.6C.952,19.886,1.958,11.266,2.9,2.638,3.086.967,4.338.831,5.55.72A176.321,176.321,0,0,1,37.255.708c1.461.13,2.511.581,2.7,2.361.873,8.226,1.838,16.443,2.79,24.661.4,3.421-1.139,4.535-4.476,4.416C32.576,31.941,26.87,32.089,21.169,32.088Z" transform="translate(5.73 11.843)" fill="#fff"/>
    <path id="Path_998-6" data-name="Path 998" d="M26.751,0C34.421.21,41.8.652,49.038,2.4c3.54.855,5.833,3.735,5.023,6.618-1,3.545-3.8,3.233-6.6,2.8a129.685,129.685,0,0,0-40.831.037c-2.812.454-5.613.635-6.48-2.979-.735-3.06,1.334-5.592,4.8-6.473C12.195.551,19.6.272,26.751,0Z" transform="translate(0 0)" fill="#fff"/>
    <path id="Path_999-6" data-name="Path 999" d="M6.643,20.659c.132,1.54.272,3.249-1.7,3.565-1.993.318-2.37-1.291-2.571-2.866C1.62,15.454.842,9.553.1,3.647-.1,2.124-.193.38,1.737.047,3.832-.314,3.961,1.47,4.169,2.975Q5.4,11.818,6.643,20.659Z" transform="translate(47.477 14.429)" fill="#fff"/>
    <path id="Path_1000-6" data-name="Path 1000" d="M.084,20.372C.927,14.362,1.77,8.467,2.571,2.566,2.75,1.248,3.181-.064,4.619,0,6.236.076,6.827,1.434,6.64,2.957q-1.19,9.671-2.462,19.33C3.994,23.7,3.145,24.61,1.685,24.264-.612,23.718.119,21.81.084,20.372Z" transform="translate(0.074 14.856)" fill="#fff"/>
  </g>
  <rect id="Rectangle_239" data-name="Rectangle 239" width="74.864" height="315.644" rx="12" transform="translate(315.644 56.051) rotate(90)" fill="#fff"/>
  <g id="Group_462" data-name="Group 462" transform="translate(70.02 187.288) rotate(180)">
    <path id="Path_997-7" data-name="Path 997" d="M21.169,32.088c-5.837,0-11.675-.073-17.51.033-2.625.047-3.9-1.036-3.623-3.6C.952,19.886,1.958,11.266,2.9,2.638,3.086.967,4.338.831,5.55.72A176.321,176.321,0,0,1,37.255.708c1.461.13,2.511.581,2.7,2.361.873,8.226,1.838,16.443,2.79,24.661.4,3.421-1.139,4.535-4.476,4.416C32.576,31.941,26.87,32.089,21.169,32.088Z" transform="translate(5.73 11.843)" fill="#fff"/>
    <path id="Path_998-7" data-name="Path 998" d="M26.751,0C34.421.21,41.8.652,49.038,2.4c3.54.855,5.833,3.735,5.023,6.618-1,3.545-3.8,3.233-6.6,2.8a129.685,129.685,0,0,0-40.831.037c-2.812.454-5.613.635-6.48-2.979-.735-3.06,1.334-5.592,4.8-6.473C12.195.551,19.6.272,26.751,0Z" transform="translate(0 0)" fill="#fff"/>
    <path id="Path_999-7" data-name="Path 999" d="M6.643,20.659c.132,1.54.272,3.249-1.7,3.565-1.993.318-2.37-1.291-2.571-2.866C1.62,15.454.842,9.553.1,3.647-.1,2.124-.193.38,1.737.047,3.832-.314,3.961,1.47,4.169,2.975Q5.4,11.818,6.643,20.659Z" transform="translate(47.477 14.429)" fill="#fff"/>
    <path id="Path_1000-7" data-name="Path 1000" d="M.084,20.372C.927,14.362,1.77,8.467,2.571,2.566,2.75,1.248,3.181-.064,4.619,0,6.236.076,6.827,1.434,6.64,2.957q-1.19,9.671-2.462,19.33C3.994,23.7,3.145,24.61,1.685,24.264-.612,23.718.119,21.81.084,20.372Z" transform="translate(0.074 14.856)" fill="#fff"/>
  </g>
  <g id="Group_463" data-name="Group 463" transform="translate(15.54 0)">
    <path id="Path_997-8" data-name="Path 997" d="M22.286,33.088c-5.837,0-12.376-.105-18.21,0C1.451,33.135-.244,31.61.029,29.041c.916-8.63,3.1-17.676,4.047-26.3C4.259,1.066,4.888.825,6.1.714a183.814,183.814,0,0,1,32.374,0c1.461.13,1.834.243,2.023,2.023.873,8.226,3.094,16.063,4.047,24.28.4,3.421-2.734,6.19-6.07,6.07C32.779,32.883,27.986,33.089,22.286,33.088Z" transform="translate(5.031 11.426)" fill="#fff"/>
    <path id="Path_998-8" data-name="Path 998" d="M26.5,0c7.67.21,15.018.276,22.257,2.023,3.54.855,4.856,3.188,4.047,6.07-1,3.545-3.263,4.484-6.07,4.047a127.4,127.4,0,0,0-40.467,0c-2.812.454-5.2-.432-6.07-4.047C-.538,5.033.781,2.9,4.243,2.023,11.494.178,19.345.272,26.5,0Z" transform="translate(0.817 0)" fill="#fff"/>
    <path id="Path_999-8" data-name="Path 999" d="M6.121,20.314c.132,1.54,1.973,3.731,0,4.047-1.993.318-3.846-.448-4.047-2.023C1.322,16.433.8,10.033.051,4.128-.141,2.6.144.414,2.074.081,4.169-.28,3.89.6,4.1,2.1,4.916,8,5.3,14.419,6.121,20.314Z" transform="translate(47.5 14.083)" fill="#fff"/>
    <path id="Path_1000-8" data-name="Path 1000" d="M1.013,20.238c.843-6.011,1.223-12.31,2.023-18.21C3.216.709,3.622-.062,5.06,0,6.676.077,7.27,2.527,7.083,4.051,6.29,10.5,5.9,15.82,5.06,22.261c-.185,1.409-2.587,2.37-4.047,2.023C-1.284,23.739,1.048,21.675,1.013,20.238Z" transform="translate(0 14.16)" fill="#fff"/>
  </g>
</svg>
