<svg xmlns="http://www.w3.org/2000/svg" width="117.553" height="147.824" viewBox="0 0 117.553 147.824">
  <g id="Group_543" data-name="Group 543" transform="translate(-141 -119.069)">
    <path id="Subtraction_1" data-name="Subtraction 1" d="M58.856,59.335h-.676c-5.815-.2-10.2-1.628-13.79-4.5a11.587,11.587,0,0,1-3.661-5.352c-.017-.046-.032-.093-.048-.139-.128-.377-.249-.732-.678-.732a1.273,1.273,0,0,0-.376.067,23.136,23.136,0,0,1-7.086,1.056,35.854,35.854,0,0,1-8.032-1.011A37.223,37.223,0,0,1,8.8,41.246a22.982,22.982,0,0,1-7.994-13C-.687,21.626-.108,16,2.573,11.043a20.714,20.714,0,0,1,7.956-8.1A22.648,22.648,0,0,1,21.77,0a24.123,24.123,0,0,1,2.8.164A20.69,20.69,0,0,1,41.373,11.806c.3.578.554.783.975.783a2.5,2.5,0,0,0,.556-.079,18.293,18.293,0,0,1,4.137-.492,16.229,16.229,0,0,1,10.258,3.7,11.22,11.22,0,0,1,4.647,8.1c.061.87.383,1.231,1.323,1.489a13.565,13.565,0,0,1,6.692,4.064,17.413,17.413,0,0,1,3.593,6.907,21.4,21.4,0,0,1-.475,13.562,14.336,14.336,0,0,1-5.318,6.944,15.382,15.382,0,0,1-8.566,2.545ZM47.562,51.181a.75.75,0,0,0-.406.132,1.287,1.287,0,0,0-.594,1.414,2.235,2.235,0,0,0,.8,1.256C50.75,57.1,54.97,57.479,59,57.6a2.266,2.266,0,0,0-1.639-.873,3.972,3.972,0,0,1-.568-.127,24.9,24.9,0,0,1-8.418-4.966l-.053-.046A1.247,1.247,0,0,0,47.562,51.181ZM22.488,5.171C15.1,5.171,8.781,10.263,7.78,17.015a6.524,6.524,0,0,0-.32,1.711,7.907,7.907,0,0,1-.225,1.427.465.465,0,0,0,.02.4.235.235,0,0,0,.2.087.748.748,0,0,0,.322-.094c.009-.065.015-.132.02-.2a1.94,1.94,0,0,1,.069-.422,15.046,15.046,0,0,1,5.619-7.2,16.6,16.6,0,0,1,8.782-3.3c.46-.018.92-.027,1.367-.027A26.5,26.5,0,0,1,33.306,11.1c.942.363,1.861.733,2.834,1.126l.01,0q.678.273,1.372.551c-.014-.074-.021-.134-.027-.182a.306.306,0,0,0-.041-.156,5.914,5.914,0,0,0-.511-.561A25.613,25.613,0,0,0,27,5.849,15.3,15.3,0,0,0,22.488,5.171Z" transform="translate(183.617 119.569)" fill="#a77e50" stroke="rgba(0,0,0,0)" stroke-miterlimit="10" stroke-width="1"/>
    <path id="Path_2" data-name="Path 2" d="M893.768,472.667a26.356,26.356,0,0,1,1.989,4.681,21.9,21.9,0,0,1,.523,9.351c-.725-1.583-1.27-3.219-2.058-4.752-3.145-6.116-8.321-9.425-14.9-10.792-7-1.455-14.018-.708-21.042-.167-6.552.505-13.113,1.022-19.633-.463a24.359,24.359,0,0,1-13.557-8.477,25.944,25.944,0,0,1-3.85-5.1c.363-.318.526-.021.667.133,2.554,2.761,5.936,3.578,9.464,3.921,5.549.539,10.774-.917,15.916-2.793,4.586-1.673,9.068-3.624,13.787-4.942a24.837,24.837,0,0,1,21.762,3.694,30.8,30.8,0,0,1,10.332,12.794,4.683,4.683,0,0,0,.252.42c.127.567.037.618-.695.395a54.641,54.641,0,0,0-4.176-4.725,25.517,25.517,0,0,0-14.276-6.766c-4.5-.632-8.825.3-13.145,1.254-4.652,1.032-9.2,2.517-13.9,3.342-2.635.462-5.288.994-7.715.545,5.052.65,10.318.037,15.574-.827,5.612-.924,11.2-2.192,16.93-1.938,6.119.271,11.964,1.6,16.928,5.5a20.134,20.134,0,0,1,4.328,4.579C893.507,471.88,893.828,472.193,893.768,472.667Z" transform="translate(-679.242 -273.247)" fill="#ff4d4d"/>
    <path id="Path_4" data-name="Path 4" d="M994.608,425.928c-.139.206-.287.456-.466.683q-5.791,7.344-11.6,14.672c-.5.633-1.016,1.654-1.88,1.462-.71-.158-.587-1.278-.851-1.965-4.069-10.587-11.6-17.349-22.569-20.164a20.956,20.956,0,0,0-8.917-.291c-.331.059-.717.244-.952-.044s.025-.624.167-.931c1.569-3.4,3.162-6.783,4.669-10.207.47-1.067.851-1.174,1.8-.466a43.161,43.161,0,0,0,25.2,8.441,25.5,25.5,0,0,0,4.523-.431,1.277,1.277,0,0,1,1.46.672,21.333,21.333,0,0,0,8.628,7.937C994.1,425.437,994.514,425.44,994.608,425.928Z" transform="translate(-762.695 -244.115)" fill="#a77e50"/>
    <path id="Path_8" data-name="Path 8" d="M906.078,674.754c-9.056-.236-17.143-4.31-23.22-12.323a6.224,6.224,0,0,1-1.6-3.893,2.8,2.8,0,0,1,4.187-2.677,7.793,7.793,0,0,1,3.055,2.58,23.221,23.221,0,0,0,36.713.875,12.6,12.6,0,0,1,2.872-3,3.059,3.059,0,0,1,4.786,3.727c-.949,2.516-2.808,4.392-4.681,6.2C922.311,671.935,915.234,674.729,906.078,674.754Z" transform="translate(-718.981 -407.861)" fill="#ff4d4d"/>
    <text id="Seeds" transform="translate(141 235)" fill="#a77e50" font-size="36" font-family="SegoeUI, Segoe UI"><tspan x="0" y="0">Seeds</tspan></text>
  </g>
</svg>
