<svg id="Group_747" data-name="Group 747" xmlns="http://www.w3.org/2000/svg" width="29.359" height="19.842" viewBox="0 0 29.359 19.842">
  <path id="Path_426" data-name="Path 426" d="M163.549,55.635c0,.752.675,2.2,0,2.2H136.306c-.675,0-1.816-1.453-1.816-2.2s1.141,0,1.816,0h27.243C164.224,55.635,163.549,54.884,163.549,55.635ZM150.836,40.2c-.039-.922-1.047-2.2-1.816-2.2s-1.773,1.287-1.816,2.2c.46-.068,1.343-2.2,1.816-2.2C149.514,38,150.356,40.129,150.836,40.2Zm10.9,13.228H136.306c.508-7.89,6.084-13.228,12.714-13.228S161.226,45.54,161.733,53.43ZM147.2,40.2s-6.98,1.556-9.081,11.023h3.632S142.192,43.639,147.2,40.2Z" transform="translate(-134.49 -37.998)" fill="#ff4d4d"/>
</svg>
