<svg id="Group_747" data-name="Group 747" xmlns="http://www.w3.org/2000/svg" width="29.911" height="28.957" viewBox="0 0 29.911 28.957">
  <g id="Group_425" data-name="Group 425" transform="translate(0 27.793) rotate(-90)">
    <path id="Path_997" data-name="Path 997" d="M4.4,5.489c-1.212,0-2.424-.012-3.635.006C.215,5.5-.049,5.317.008,4.878.2,3.4.406,1.927.6.451.641.165.9.142,1.152.123a44.408,44.408,0,0,1,6.583,0c.3.022.521.1.561.4.181,1.407.382,2.812.579,4.218.082.585-.237.776-.929.755C6.764,5.463,5.579,5.489,4.4,5.489Z" transform="translate(1.19 2.026)" fill="#ff4d4d"/>
    <path id="Path_998" data-name="Path 998" d="M5.554,0a26.72,26.72,0,0,1,4.627.41c.735.146,1.211.639,1.043,1.132-.207.606-.788.553-1.371.478a32.618,32.618,0,0,0-8.477.006C.792,2.1.211,2.135.031,1.517-.122.994.308.561,1.027.41A25.913,25.913,0,0,1,5.554,0Z" fill="#ff4d4d"/>
    <path id="Path_999" data-name="Path 999" d="M1.379,3.534c.027.263.057.556-.353.61s-.492-.221-.534-.49C.336,2.643.175,1.634.02.624-.02.363-.04.065.361.008c.435-.062.462.243.5.5Q1.12,2.021,1.379,3.534Z" transform="translate(9.857 2.468)" fill="#ff4d4d"/>
    <path id="Path_1000" data-name="Path 1000" d="M.017,3.485C.192,2.456.368,1.448.534.439.571.213.661-.011.959,0a.405.405,0,0,1,.42.505Q1.132,2.16.867,3.812A.4.4,0,0,1,.35,4.15C-.127,4.057.025,3.731.017,3.485Z" transform="translate(0.015 2.541)" fill="#ff4d4d"/>
  </g>
  <g id="Group_423" data-name="Group 423" transform="translate(29.911 16.535) rotate(90)">
    <path id="Path_997-2" data-name="Path 997" d="M4.4,5.489c-1.212,0-2.424-.012-3.635.006C.215,5.5-.049,5.317.008,4.878.2,3.4.406,1.927.6.451.641.165.9.142,1.152.123a44.408,44.408,0,0,1,6.583,0c.3.022.521.1.561.4.181,1.407.382,2.812.579,4.218.082.585-.237.776-.929.755C6.764,5.463,5.579,5.489,4.4,5.489Z" transform="translate(1.19 2.026)" fill="#ff4d4d"/>
    <path id="Path_998-2" data-name="Path 998" d="M5.554,0a26.72,26.72,0,0,1,4.627.41c.735.146,1.211.639,1.043,1.132-.207.606-.788.553-1.371.478a32.618,32.618,0,0,0-8.477.006C.792,2.1.211,2.135.031,1.517-.122.994.308.561,1.027.41A25.913,25.913,0,0,1,5.554,0Z" transform="translate(0)" fill="#ff4d4d"/>
    <path id="Path_999-2" data-name="Path 999" d="M1.379,3.534c.027.263.057.556-.353.61s-.492-.221-.534-.49C.336,2.643.175,1.634.02.624-.02.363-.04.065.361.008c.435-.062.462.243.5.5Q1.12,2.021,1.379,3.534Z" transform="translate(9.857 2.468)" fill="#ff4d4d"/>
    <path id="Path_1000-2" data-name="Path 1000" d="M.017,3.485C.192,2.456.368,1.448.534.439.571.213.661-.011.959,0a.405.405,0,0,1,.42.505Q1.132,2.16.867,3.812A.4.4,0,0,1,.35,4.15C-.127,4.057.025,3.731.017,3.485Z" transform="translate(0.015 2.541)" fill="#ff4d4d"/>
  </g>
  <g id="Group_694" data-name="Group 694">
    <g id="Group_426" data-name="Group 426" transform="translate(0 13.292) rotate(-90)">
      <path id="Path_997-3" data-name="Path 997" d="M4.4,5.489c-1.212,0-2.424-.012-3.635.006C.215,5.5-.049,5.317.008,4.878.2,3.4.406,1.927.6.451.641.165.9.142,1.152.123a44.408,44.408,0,0,1,6.583,0c.3.022.521.1.561.4.181,1.407.382,2.812.579,4.218.082.585-.237.776-.929.755C6.764,5.463,5.579,5.489,4.4,5.489Z" transform="translate(1.19 2.026)" fill="#ff4d4d"/>
      <path id="Path_998-3" data-name="Path 998" d="M5.554,0a26.72,26.72,0,0,1,4.627.41c.735.146,1.211.639,1.043,1.132-.207.606-.788.553-1.371.478a32.618,32.618,0,0,0-8.477.006C.792,2.1.211,2.135.031,1.517-.122.994.308.561,1.027.41A25.913,25.913,0,0,1,5.554,0Z" fill="#ff4d4d"/>
      <path id="Path_999-3" data-name="Path 999" d="M1.379,3.534c.027.263.057.556-.353.61s-.492-.221-.534-.49C.336,2.643.175,1.634.02.624-.02.363-.04.065.361.008c.435-.062.462.243.5.5Q1.12,2.021,1.379,3.534Z" transform="translate(9.857 2.468)" fill="#ff4d4d"/>
      <path id="Path_1000-3" data-name="Path 1000" d="M.017,3.485C.192,2.456.368,1.448.534.439.571.213.661-.011.959,0a.405.405,0,0,1,.42.505Q1.132,2.16.867,3.812A.4.4,0,0,1,.35,4.15C-.127,4.057.025,3.731.017,3.485Z" transform="translate(0.015 2.541)" fill="#ff4d4d"/>
    </g>
    <g id="Group_424" data-name="Group 424" transform="translate(29.911 1.194) rotate(90)">
      <path id="Path_997-4" data-name="Path 997" d="M4.4,5.489c-1.212,0-2.424-.012-3.635.006C.215,5.5-.049,5.317.008,4.878.2,3.4.406,1.927.6.451.641.165.9.142,1.152.123a44.408,44.408,0,0,1,6.583,0c.3.022.521.1.561.4.181,1.407.382,2.812.579,4.218.082.585-.237.776-.929.755C6.764,5.463,5.579,5.489,4.4,5.489Z" transform="translate(1.19 2.026)" fill="#ff4d4d"/>
      <path id="Path_998-4" data-name="Path 998" d="M5.554,0a26.72,26.72,0,0,1,4.627.41c.735.146,1.211.639,1.043,1.132-.207.606-.788.553-1.371.478a32.618,32.618,0,0,0-8.477.006C.792,2.1.211,2.135.031,1.517-.122.994.308.561,1.027.41A25.913,25.913,0,0,1,5.554,0Z" fill="#ff4d4d"/>
      <path id="Path_999-4" data-name="Path 999" d="M1.379,3.534c.027.263.057.556-.353.61s-.492-.221-.534-.49C.336,2.643.175,1.634.02.624-.02.363-.04.065.361.008c.435-.062.462.243.5.5Q1.12,2.021,1.379,3.534Z" transform="translate(9.857 2.468)" fill="#ff4d4d"/>
      <path id="Path_1000-4" data-name="Path 1000" d="M.017,3.485C.192,2.456.368,1.448.534.439.571.213.661-.011.959,0a.405.405,0,0,1,.42.505Q1.132,2.16.867,3.812A.4.4,0,0,1,.35,4.15C-.127,4.057.025,3.731.017,3.485Z" transform="translate(0.015 2.541)" fill="#ff4d4d"/>
    </g>
    <rect id="Rectangle_223" data-name="Rectangle 223" width="13.162" height="28.957" rx="6.581" transform="translate(8.286)" fill="#ff4d4d"/>
  </g>
</svg>
